<svg id="visual" viewBox="0 0 1263 450" width="1263" height="450" xmlns="http://www.w3.org/2000/svg" xmlns:xlink="http://www.w3.org/1999/xlink" version="1.1"><path d="M0 415L63 427L126 417L189 425L253 427L316 430L379 416L442 427L505 421L568 418L632 437L695 435L758 427L821 418L884 435L947 429L1010 443L1074 437L1137 432L1200 412L1263 416L1263 451L1200 451L1137 451L1074 451L1010 451L947 451L884 451L821 451L758 451L695 451L632 451L568 451L505 451L442 451L379 451L316 451L253 451L189 451L126 451L63 451L0 451Z" fill="#001313" stroke-linecap="square" stroke-linejoin="bevel"></path></svg>